<svg xmlns="http://www.w3.org/2000/svg" xmlns:xlink="http://www.w3.org/1999/xlink" width="129.15524762778756" height="129.15524762778753" viewBox="0 0 129.15524762778756 129.15524762778753" fill="none"><path id="1" fill-rule="evenodd" style="fill:#4BAFF8" transform="translate(0.577576331697497 0.577576331697486)  rotate(0.5194777783680493 64.00000000000001 64)" opacity="1" d="M18.7452 109.255C6.74284 97.2525 0 80.9739 0 64C0 47.0261 6.74284 30.7475 18.7452 18.7452C30.7475 6.74284 47.0261 0 64 0C80.9739 0 97.2525 6.74284 109.255 18.7452C121.257 30.7475 128 47.0261 128 64C128 99.3462 99.3462 128 64 128C47.0261 128 30.7475 121.257 18.7452 109.255ZM44.1284 22.0921L46.5384 27.062C46.8084 27.512 47.3384 27.772 47.8784 27.702L60.7284 26.172C61.2784 26.102 61.7384 25.722 61.8784 25.2021L62.8984 19.7021C63.1884 18.6021 61.9784 17.6921 60.9384 18.2321L57.5984 19.9421C56.9384 20.2821 56.1084 20.0421 55.7584 19.3921L54.1184 16.4121C53.5484 15.3621 51.9184 15.5321 51.6084 16.6821L50.7184 19.9221C50.5284 20.5921 49.8384 21.0021 49.1284 20.8621L45.5684 20.1621C44.4284 19.9421 43.5384 21.1221 44.1284 22.0921ZM34.9384 39.592C40.583 42.6999 39.5237 51.3936 38.2579 61.7826C36.0007 80.3088 33.0866 104.226 66.3584 111.472C76.5384 113.692 92.0084 112.992 98.9384 108.892C84.6292 95.3959 80.0797 77.02 76.2861 61.6972C70.6548 38.9518 66.6891 22.934 34.9384 39.592Z " /></svg>